<svg xmlns="http://www.w3.org/2000/svg" viewBox="0 0 24 24">
  <path fill-rule="evenodd" d="M23.8535767,23.1464233 L16.5542603,15.8471069 C18.0697632,14.1638794 19,11.9432983 19,9.5 C19,4.2532959 14.7467041,0 9.5,0 C4.2532959,0 0,4.2532959 0,9.5 C0,14.7467041 4.2532959,19 9.5,19 C11.9432983,19 14.1638794,18.0697632 15.8471069,16.5541992 L23.1464233,23.8535156 C23.3417358,24.0488281 23.6582641,24.0488281 23.8535766,23.8535156 C24.0488281,23.6582642 24.0488281,23.3416748 23.8535767,23.1464233 L23.8535767,23.1464233 Z M9.5,18 C4.805603,18 1,14.194397 1,9.5 C1,4.805542 4.805603,1 9.5,1 C14.194397,1 18,4.805542 18,9.5 C18,14.194397 14.194397,18 9.5,18 L9.5,18 Z"/>
</svg>
